<svg id="visual" viewBox="0 0 900 600" width="900" height="600" xmlns="http://www.w3.org/2000/svg" xmlns:xlink="http://www.w3.org/1999/xlink" version="1.1"><rect x="0" y="0" width="900" height="600" fill="#1d002d"></rect><defs><linearGradient id="grad1_0" x1="33.3%" y1="0%" x2="100%" y2="100%"><stop offset="20%" stop-color="#ff7400" stop-opacity="1"></stop><stop offset="80%" stop-color="#ff7400" stop-opacity="1"></stop></linearGradient></defs><defs><linearGradient id="grad1_1" x1="33.3%" y1="0%" x2="100%" y2="100%"><stop offset="20%" stop-color="#ff7400" stop-opacity="1"></stop><stop offset="80%" stop-color="#a1044a" stop-opacity="1"></stop></linearGradient></defs><defs><linearGradient id="grad1_2" x1="33.3%" y1="0%" x2="100%" y2="100%"><stop offset="20%" stop-color="#1d002d" stop-opacity="1"></stop><stop offset="80%" stop-color="#a1044a" stop-opacity="1"></stop></linearGradient></defs><defs><linearGradient id="grad2_0" x1="0%" y1="0%" x2="66.7%" y2="100%"><stop offset="20%" stop-color="#ff7400" stop-opacity="1"></stop><stop offset="80%" stop-color="#ff7400" stop-opacity="1"></stop></linearGradient></defs><defs><linearGradient id="grad2_1" x1="0%" y1="0%" x2="66.7%" y2="100%"><stop offset="20%" stop-color="#a1044a" stop-opacity="1"></stop><stop offset="80%" stop-color="#ff7400" stop-opacity="1"></stop></linearGradient></defs><defs><linearGradient id="grad2_2" x1="0%" y1="0%" x2="66.7%" y2="100%"><stop offset="20%" stop-color="#a1044a" stop-opacity="1"></stop><stop offset="80%" stop-color="#1d002d" stop-opacity="1"></stop></linearGradient></defs><g transform="translate(900, 0)"><path d="M0 376C-24 380.5 -47.9 385 -77.8 391.3C-107.7 397.6 -143.6 405.8 -158.4 382.5C-173.3 359.2 -167.2 304.5 -203.3 304.3C-239.5 304.1 -317.9 358.4 -366.3 366.3C-414.7 374.1 -433.1 335.5 -449.7 300.5C-466.2 265.5 -480.9 234.1 -476.7 197.5C-472.5 160.8 -449.5 118.9 -427.6 85.1C-405.7 51.3 -384.8 25.6 -364 0L0 0Z" fill="#5d0246"></path><path d="M0 250.7C-16 253.7 -32 256.7 -51.9 260.9C-71.8 265.1 -95.7 270.5 -105.6 255C-115.5 239.5 -111.5 203 -135.6 202.9C-159.7 202.8 -211.9 239 -244.2 244.2C-276.5 249.4 -288.8 223.6 -299.8 200.3C-310.8 177 -320.6 156.1 -317.8 131.6C-315 107.2 -299.7 79.2 -285.1 56.7C-270.5 34.2 -256.6 17.1 -242.7 0L0 0Z" fill="#db363a"></path><path d="M0 125.3C-8 126.8 -16 128.3 -25.9 130.4C-35.9 132.5 -47.9 135.3 -52.8 127.5C-57.8 119.7 -55.7 101.5 -67.8 101.4C-79.8 101.4 -106 119.5 -122.1 122.1C-138.2 124.7 -144.4 111.8 -149.9 100.2C-155.4 88.5 -160.3 78 -158.9 65.8C-157.5 53.6 -149.8 39.6 -142.5 28.4C-135.2 17.1 -128.3 8.5 -121.3 0L0 0Z" fill="#ff7400"></path></g><g transform="translate(0, 600)"><path d="M0 -485C41.2 -517.8 82.4 -550.7 102.6 -515.9C122.9 -481.1 122.2 -378.8 147 -354.8C171.7 -330.7 221.9 -385 271.7 -406.6C321.5 -428.1 370.8 -416.9 382.4 -382.4C394 -347.9 367.8 -290.1 389.1 -260C410.5 -229.9 479.4 -227.6 484.1 -200.5C488.8 -173.4 429.3 -121.4 421.7 -83.9C414.2 -46.3 458.6 -23.2 503 0L0 0Z" fill="#5d0246"></path><path d="M0 -323.3C27.5 -345.2 54.9 -367.1 68.4 -343.9C81.9 -320.8 81.5 -252.5 98 -236.5C114.5 -220.5 147.9 -256.7 181.1 -271.1C214.3 -285.4 247.2 -278 255 -255C262.7 -231.9 245.2 -193.4 259.4 -173.3C273.7 -153.3 319.6 -151.8 322.7 -133.7C325.9 -115.6 286.2 -81 281.2 -55.9C276.1 -30.9 305.7 -15.4 335.3 0L0 0Z" fill="#db363a"></path><path d="M0 -161.7C13.7 -172.6 27.5 -183.6 34.2 -172C41 -160.4 40.7 -126.3 49 -118.3C57.2 -110.2 74 -128.3 90.6 -135.5C107.2 -142.7 123.6 -139 127.5 -127.5C131.3 -116 122.6 -96.7 129.7 -86.7C136.8 -76.6 159.8 -75.9 161.4 -66.8C162.9 -57.8 143.1 -40.5 140.6 -28C138.1 -15.4 152.9 -7.7 167.7 0L0 0Z" fill="#ff7400"></path></g></svg>